{
  "accessors": [
    {
      "bufferView": 2,
      "componentType": 5126,
      "count": 51025,
      "max": [
        -4056.34423828125,
        -318.8706359863281,
        2057.083984375
      ],
      "min": [
        -4531.396484375,
        -581.0435791015625,
        240.0802001953125
      ],
      "type": "VEC3"
    },
    {
      "bufferView": 2,
      "byteOffset": 612300,
      "componentType": 5126,
      "count": 51025,
      "max": [
        0.9999850988388062,
        0.999995768070221,
        1.0
      ],
      "min": [
        -0.9999637603759766,
        -0.9999997615814209,
        -0.9999818801879883
      ],
      "type": "VEC3"
    },
    {
      "bufferView": 1,
      "componentType": 5126,
      "count": 51025,
      "max": [
        0.9962499737739563,
        0.11757999658584595
      ],
      "min": [
        0.0037400000728666782,
        0.0037400000728666782
      ],
      "type": "VEC2"
    },
    {
      "bufferView": 0,
      "componentType": 5125,
      "count": 298578,
      "type": "SCALAR"
    },
    {
      "bufferView": 2,
      "byteOffset": 1224600,
      "componentType": 5126,
      "count": 65532,
      "max": [
        -3870.0927734375,
        -234.01708984375,
        2114.34619140625
      ],
      "min": [
        -5286.17919921875,
        -645.624267578125,
        -11.8565673828125
      ],
      "type": "VEC3"
    },
    {
      "bufferView": 2,
      "byteOffset": 2010984,
      "componentType": 5126,
      "count": 65532,
      "max": [
        0.999983012676239,
        1.0,
        1.0
      ],
      "min": [
        -0.9999847412109375,
        -0.999999463558197,
        -0.9999903440475464
      ],
      "type": "VEC3"
    },
    {
      "bufferView": 1,
      "byteOffset": 408200,
      "componentType": 5126,
      "count": 65532,
      "max": [
        0.9970099925994873,
        0.47321000695228577
      ],
      "min": [
        0.0029949999880045652,
        0.0029800001066178083
      ],
      "type": "VEC2"
    },
    {
      "bufferView": 0,
      "byteOffset": 1194312,
      "componentType": 5125,
      "count": 327219,
      "type": "SCALAR"
    },
    {
      "bufferView": 2,
      "byteOffset": 2797368,
      "componentType": 5126,
      "count": 65532,
      "max": [
        -3872.948974609375,
        -234.30810546875,
        2105.919921875
      ],
      "min": [
        -5260.17431640625,
        -612.521484375,
        40.9510498046875
      ],
      "type": "VEC3"
    },
    {
      "bufferView": 2,
      "byteOffset": 3583752,
      "componentType": 5126,
      "count": 65532,
      "max": [
        0.9999903440475464,
        0.9999998807907104,
        1.0
      ],
      "min": [
        -0.9995202422142029,
        -1.0,
        -0.9999890923500061
      ],
      "type": "VEC3"
    },
    {
      "bufferView": 1,
      "byteOffset": 932456,
      "componentType": 5126,
      "count": 65532,
      "max": [
        0.48639601469039917,
        0.4673900008201599
      ],
      "min": [
        0.005249999929219484,
        0.0029800001066178083
      ],
      "type": "VEC2"
    },
    {
      "bufferView": 0,
      "byteOffset": 2503188,
      "componentType": 5125,
      "count": 339375,
      "type": "SCALAR"
    },
    {
      "bufferView": 2,
      "byteOffset": 4370136,
      "componentType": 5126,
      "count": 65532,
      "max": [
        -3870.06787109375,
        -234.49063110351563,
        2112.904052734375
      ],
      "min": [
        -5363.69873046875,
        -654.9404296875,
        -12.021729469299316
      ],
      "type": "VEC3"
    },
    {
      "bufferView": 2,
      "byteOffset": 5156520,
      "componentType": 5126,
      "count": 65532,
      "max": [
        0.9999980926513672,
        1.0,
        0.9999369978904724
      ],
      "min": [
        -0.9998899102210999,
        -0.9999993443489075,
        -0.9999962449073792
      ],
      "type": "VEC3"
    },
    {
      "bufferView": 1,
      "byteOffset": 1456712,
      "componentType": 5126,
      "count": 65532,
      "max": [
        0.9968850016593933,
        0.47321000695228577
      ],
      "min": [
        0.0029800001066178083,
        0.0029800001066178083
      ],
      "type": "VEC2"
    },
    {
      "bufferView": 0,
      "byteOffset": 3860688,
      "componentType": 5125,
      "count": 305319,
      "type": "SCALAR"
    },
    {
      "bufferView": 2,
      "byteOffset": 5942904,
      "componentType": 5126,
      "count": 65532,
      "max": [
        -3877.10009765625,
        -265.1557922363281,
        2111.9189453125
      ],
      "min": [
        -5372.2666015625,
        -656.4417724609375,
        -5.660645008087158
      ],
      "type": "VEC3"
    },
    {
      "bufferView": 2,
      "byteOffset": 6729288,
      "componentType": 5126,
      "count": 65532,
      "max": [
        0.9998367428779602,
        0.9999992251396179,
        1.0
      ],
      "min": [
        -0.9999714493751526,
        -1.0,
        -0.9998232126235962
      ],
      "type": "VEC3"
    },
    {
      "bufferView": 1,
      "byteOffset": 1980968,
      "componentType": 5126,
      "count": 65532,
      "max": [
        0.9950500130653381,
        0.4728499948978424
      ],
      "min": [
        0.10134000331163406,
        0.028950000181794167
      ],
      "type": "VEC2"
    },
    {
      "bufferView": 0,
      "byteOffset": 5081964,
      "componentType": 5125,
      "count": 342243,
      "type": "SCALAR"
    },
    {
      "bufferView": 2,
      "byteOffset": 7515672,
      "componentType": 5126,
      "count": 60108,
      "max": [
        -3877.989501953125,
        -238.27099609375,
        2110.9541015625
      ],
      "min": [
        -5372.01416015625,
        -656.7464599609375,
        -12.0877685546875
      ],
      "type": "VEC3"
    },
    {
      "bufferView": 2,
      "byteOffset": 8236968,
      "componentType": 5126,
      "count": 60108,
      "max": [
        0.9998826384544373,
        0.9999997615814209,
        0.99981689453125
      ],
      "min": [
        -0.9999714493751526,
        -1.0,
        -0.9999111294746399
      ],
      "type": "VEC3"
    },
    {
      "bufferView": 1,
      "byteOffset": 2505224,
      "componentType": 5126,
      "count": 60108,
      "max": [
        0.9970099925994873,
        0.4731000065803528
      ],
      "min": [
        0.0029800001066178083,
        0.0029800001066178083
      ],
      "type": "VEC2"
    },
    {
      "bufferView": 0,
      "byteOffset": 6450936,
      "componentType": 5125,
      "count": 248106,
      "type": "SCALAR"
    },
    {
      "bufferView": 2,
      "byteOffset": 8958264,
      "componentType": 5126,
      "count": 528,
      "max": [
        -5619.93896484375,
        -217.4791259765625,
        2343.91796875
      ],
      "min": [
        -5652.1875,
        -355.1998291015625,
        -291.14453125
      ],
      "type": "VEC3"
    },
    {
      "bufferView": 2,
      "byteOffset": 8964600,
      "componentType": 5126,
      "count": 528,
      "max": [
        0.7279993295669556,
        0.7279519438743591,
        0.6857846975326538
      ],
      "min": [
        -0.7279993295669556,
        -0.7280232310295105,
        -0.6857817769050598
      ],
      "type": "VEC3"
    },
    {
      "bufferView": 3,
      "componentType": 5126,
      "count": 528,
      "max": [
        0.9974074959754944,
        0.6821651458740234,
        0.8164966702461243,
        1.0
      ],
      "min": [
        -0.9974076151847839,
        -0.6821683049201965,
        -0.8164966106414795,
        -1.0
      ],
      "type": "VEC4"
    },
    {
      "bufferView": 1,
      "byteOffset": 2986088,
      "componentType": 5126,
      "count": 528,
      "max": [
        9904.2998046875,
        39.56160354614258
      ],
      "min": [
        -9904.099609375,
        -2867.666259765625
      ],
      "type": "VEC2"
    },
    {
      "bufferView": 0,
      "byteOffset": 7443360,
      "componentType": 5125,
      "count": 1344,
      "type": "SCALAR"
    },
    {
      "bufferView": 2,
      "byteOffset": 8970936,
      "componentType": 5126,
      "count": 936,
      "max": [
        -3904.92236328125,
        -12.735107421875,
        2488.197265625
      ],
      "min": [
        -5994.92236328125,
        -954.2349853515625,
        -435.18359375
      ],
      "type": "VEC3"
    },
    {
      "bufferView": 2,
      "byteOffset": 8982168,
      "componentType": 5126,
      "count": 936,
      "max": [
        0.577350914478302,
        0.577350914478302,
        0.5773505568504333
      ],
      "min": [
        -0.577350914478302,
        -0.577350914478302,
        -0.5773505568504333
      ],
      "type": "VEC3"
    },
    {
      "bufferView": 1,
      "byteOffset": 2990312,
      "componentType": 5126,
      "count": 936,
      "max": [
        12.987503051757813,
        1.1563719511032104
      ],
      "min": [
        -11.987503051757813,
        -0.15631499886512756
      ],
      "type": "VEC2"
    },
    {
      "bufferView": 0,
      "byteOffset": 7448736,
      "componentType": 5125,
      "count": 1404,
      "type": "SCALAR"
    },
    {
      "bufferView": 2,
      "byteOffset": 8993400,
      "componentType": 5126,
      "count": 65532,
      "max": [
        -5518.07421875,
        -498.38372802734375,
        1868.88916015625
      ],
      "min": [
        -5954.22412109375,
        -759.1740112304688,
        193.62176513671875
      ],
      "type": "VEC3"
    },
    {
      "bufferView": 2,
      "byteOffset": 9779784,
      "componentType": 5126,
      "count": 65532,
      "max": [
        0.9999970197677612,
        0.9999978542327881,
        1.0
      ],
      "min": [
        -0.9999987483024597,
        -0.9999969005584717,
        -0.9998243451118469
      ],
      "type": "VEC3"
    },
    {
      "bufferView": 1,
      "byteOffset": 2997800,
      "componentType": 5126,
      "count": 65532,
      "max": [
        0.9740099906921387,
        0.06204000115394592
      ],
      "min": [
        0.002199999988079071,
        0.002199999988079071
      ],
      "type": "VEC2"
    },
    {
      "bufferView": 0,
      "byteOffset": 7454352,
      "componentType": 5125,
      "count": 358407,
      "type": "SCALAR"
    },
    {
      "bufferView": 2,
      "byteOffset": 10566168,
      "componentType": 5126,
      "count": 36685,
      "max": [
        -5526.06884765625,
        -497.28582763671875,
        1862.76708984375
      ],
      "min": [
        -5953.85888671875,
        -759.6729736328125,
        200.7855224609375
      ],
      "type": "VEC3"
    },
    {
      "bufferView": 2,
      "byteOffset": 11006388,
      "componentType": 5126,
      "count": 36685,
      "max": [
        0.9999992251396179,
        0.999999463558197,
        0.9994350075721741
      ],
      "min": [
        -0.9999989867210388,
        -0.9999969005584717,
        -0.9996907711029053
      ],
      "type": "VEC3"
    },
    {
      "bufferView": 1,
      "byteOffset": 3522056,
      "componentType": 5126,
      "count": 36685,
      "max": [
        0.9725300073623657,
        0.06199000030755997
      ],
      "min": [
        0.02670999988913536,
        0.0022499999031424522
      ],
      "type": "VEC2"
    },
    {
      "bufferView": 0,
      "byteOffset": 8887980,
      "componentType": 5125,
      "count": 184917,
      "type": "SCALAR"
    },
    {
      "bufferView": 2,
      "byteOffset": 11446608,
      "componentType": 5126,
      "count": 65532,
      "max": [
        -5074.36572265625,
        -251.94882202148438,
        1982.942626953125
      ],
      "min": [
        -5984.97216796875,
        -543.7120971679688,
        81.57098388671875
      ],
      "type": "VEC3"
    },
    {
      "bufferView": 2,
      "byteOffset": 12232992,
      "componentType": 5126,
      "count": 65532,
      "max": [
        0.9996127486228943,
        0.9999942183494568,
        0.9999960064888
      ],
      "min": [
        -0.9997837543487549,
        -1.0,
        -0.9999874830245972
      ],
      "type": "VEC3"
    },
    {
      "bufferView": 1,
      "byteOffset": 3815536,
      "componentType": 5126,
      "count": 65532,
      "max": [
        0.4866600036621094,
        0.260699987411499
      ],
      "min": [
        0.0029800001066178083,
        0.0029800001066178083
      ],
      "type": "VEC2"
    },
    {
      "bufferView": 0,
      "byteOffset": 9627648,
      "componentType": 5125,
      "count": 365013,
      "type": "SCALAR"
    },
    {
      "bufferView": 2,
      "byteOffset": 13019376,
      "componentType": 5126,
      "count": 24111,
      "max": [
        -5093.765625,
        -253.23080444335938,
        1981.35107421875
      ],
      "min": [
        -5992.23095703125,
        -533.1399536132813,
        81.57098388671875
      ],
      "type": "VEC3"
    },
    {
      "bufferView": 2,
      "byteOffset": 13308708,
      "componentType": 5126,
      "count": 24111,
      "max": [
        0.9966514706611633,
        0.9999788999557495,
        0.9999781250953674
      ],
      "min": [
        -0.9996506571769714,
        -0.9999956488609314,
        -0.9999966621398926
      ],
      "type": "VEC3"
    },
    {
      "bufferView": 1,
      "byteOffset": 4339792,
      "componentType": 5126,
      "count": 24111,
      "max": [
        0.4866099953651428,
        0.2584399878978729
      ],
      "min": [
        0.0039900001138448715,
        0.0040699997916817665
      ],
      "type": "VEC2"
    },
    {
      "bufferView": 0,
      "byteOffset": 11087700,
      "componentType": 5125,
      "count": 105951,
      "type": "SCALAR"
    }
  ],
  "asset": {
    "extras": {
      "author": "Эльба Мебель (https://sketchfab.com/elba)",
      "license": "CC-BY-4.0 (http://creativecommons.org/licenses/by/4.0/)",
      "source": "https://sketchfab.com/3d-models/bed-friya-33b4715f9e184a98a441678897358211",
      "title": "Bed Friya"
    },
    "generator": "Sketchfab-13.66.0",
    "version": "2.0"
  },
  "bufferViews": [
    {
      "buffer": 0,
      "byteLength": 11511504,
      "name": "floatBufferViews",
      "target": 34963
    },
    {
      "buffer": 0,
      "byteLength": 4532680,
      "byteOffset": 11511504,
      "byteStride": 8,
      "name": "floatBufferViews",
      "target": 34962
    },
    {
      "buffer": 0,
      "byteLength": 13598040,
      "byteOffset": 16044184,
      "byteStride": 12,
      "name": "floatBufferViews",
      "target": 34962
    },
    {
      "buffer": 0,
      "byteLength": 8448,
      "byteOffset": 29642224,
      "byteStride": 16,
      "name": "floatBufferViews",
      "target": 34962
    }
  ],
  "buffers": [
    {
      "byteLength": 29650672,
      "uri": "scene.bin"
    }
  ],
  "extensionsRequired": [
    "KHR_materials_pbrSpecularGlossiness"
  ],
  "extensionsUsed": [
    "KHR_materials_pbrSpecularGlossiness"
  ],
  "images": [
    {
      "uri": "textures/Aluminium_Brushed_Clean_normal.png"
    },
    {
      "uri": "textures/Dub_sonoma_diffuse.jpeg"
    },
    {
      "uri": "textures/Dub_sonoma_specularGlossiness.jpeg"
    }
  ],
  "materials": [
    {
      "doubleSided": true,
      "extensions": {
        "KHR_materials_pbrSpecularGlossiness": {
          "diffuseFactor": [
            0.33414559425481305,
            0.33414559425481305,
            0.33414559425481305,
            1.0
          ],
          "glossinessFactor": 0.0,
          "specularFactor": [
            0.0,
            0.0,
            0.0
          ]
        }
      },
      "name": "659552555"
    },
    {
      "doubleSided": true,
      "extensions": {
        "KHR_materials_pbrSpecularGlossiness": {
          "diffuseFactor": [
            0.784314,
            0.784314,
            0.784314,
            1.0
          ],
          "glossinessFactor": 0.0,
          "specularFactor": [
            0.0,
            0.0,
            0.0
          ]
        }
      },
      "name": "Aluminium_Brushed_Clean",
      "normalTexture": {
        "index": 0
      }
    },
    {
      "doubleSided": true,
      "extensions": {
        "KHR_materials_pbrSpecularGlossiness": {
          "diffuseFactor": [
            1.0,
            1.0,
            1.0,
            1.0
          ],
          "diffuseTexture": {
            "index": 1
          },
          "glossinessFactor": 0.0,
          "specularFactor": [
            0.0,
            0.0,
            0.0
          ],
          "specularGlossinessTexture": {
            "index": 2
          }
        }
      },
      "name": "Dub_sonoma"
    },
    {
      "doubleSided": true,
      "extensions": {
        "KHR_materials_pbrSpecularGlossiness": {
          "diffuseFactor": [
            0.46171569284782576,
            0.46171569284782576,
            0.46171569284782576,
            1.0
          ],
          "glossinessFactor": 0.42734295668881983,
          "specularFactor": [
            0.14156091717793276,
            0.14156091717793276,
            0.14156091717793276
          ]
        }
      },
      "name": "vel32"
    },
    {
      "doubleSided": true,
      "extensions": {
        "KHR_materials_pbrSpecularGlossiness": {
          "diffuseFactor": [
            0.4838837798442891,
            0.4838837798442891,
            0.4838837798442891,
            1.0
          ],
          "glossinessFactor": 0.5793546798329087,
          "specularFactor": [
            0.15372185502945987,
            0.15372185502945987,
            0.15372185502945987
          ]
        }
      },
      "name": "velvet13"
    }
  ],
  "meshes": [
    {
      "name": "Object_0",
      "primitives": [
        {
          "attributes": {
            "NORMAL": 1,
            "POSITION": 0,
            "TEXCOORD_0": 2
          },
          "indices": 3,
          "material": 0,
          "mode": 4
        }
      ]
    },
    {
      "name": "Object_1",
      "primitives": [
        {
          "attributes": {
            "NORMAL": 5,
            "POSITION": 4,
            "TEXCOORD_0": 6
          },
          "indices": 7,
          "material": 4,
          "mode": 4
        }
      ]
    },
    {
      "name": "Object_2",
      "primitives": [
        {
          "attributes": {
            "NORMAL": 9,
            "POSITION": 8,
            "TEXCOORD_0": 10
          },
          "indices": 11,
          "material": 4,
          "mode": 4
        }
      ]
    },
    {
      "name": "Object_3",
      "primitives": [
        {
          "attributes": {
            "NORMAL": 13,
            "POSITION": 12,
            "TEXCOORD_0": 14
          },
          "indices": 15,
          "material": 4,
          "mode": 4
        }
      ]
    },
    {
      "name": "Object_4",
      "primitives": [
        {
          "attributes": {
            "NORMAL": 17,
            "POSITION": 16,
            "TEXCOORD_0": 18
          },
          "indices": 19,
          "material": 4,
          "mode": 4
        }
      ]
    },
    {
      "name": "Object_5",
      "primitives": [
        {
          "attributes": {
            "NORMAL": 21,
            "POSITION": 20,
            "TEXCOORD_0": 22
          },
          "indices": 23,
          "material": 4,
          "mode": 4
        }
      ]
    },
    {
      "name": "Object_6",
      "primitives": [
        {
          "attributes": {
            "NORMAL": 25,
            "POSITION": 24,
            "TANGENT": 26,
            "TEXCOORD_0": 27
          },
          "indices": 28,
          "material": 1,
          "mode": 4
        }
      ]
    },
    {
      "name": "Object_7",
      "primitives": [
        {
          "attributes": {
            "NORMAL": 30,
            "POSITION": 29,
            "TEXCOORD_0": 31
          },
          "indices": 32,
          "material": 2,
          "mode": 4
        }
      ]
    },
    {
      "name": "Object_8",
      "primitives": [
        {
          "attributes": {
            "NORMAL": 34,
            "POSITION": 33,
            "TEXCOORD_0": 35
          },
          "indices": 36,
          "material": 3,
          "mode": 4
        }
      ]
    },
    {
      "name": "Object_9",
      "primitives": [
        {
          "attributes": {
            "NORMAL": 38,
            "POSITION": 37,
            "TEXCOORD_0": 39
          },
          "indices": 40,
          "material": 3,
          "mode": 4
        }
      ]
    },
    {
      "name": "Object_10",
      "primitives": [
        {
          "attributes": {
            "NORMAL": 42,
            "POSITION": 41,
            "TEXCOORD_0": 43
          },
          "indices": 44,
          "material": 3,
          "mode": 4
        }
      ]
    },
    {
      "name": "Object_11",
      "primitives": [
        {
          "attributes": {
            "NORMAL": 46,
            "POSITION": 45,
            "TEXCOORD_0": 47
          },
          "indices": 48,
          "material": 3,
          "mode": 4
        }
      ]
    }
  ],
  "nodes": [
    {
      "children": [
        1
      ],
      "matrix": [
        2.220446049250313e-16,
        2.220446049250313e-16,
        -1.0,
        0.0,
        -2.220446049250313e-16,
        -1.0,
        -2.220446049250313e-16,
        0.0,
        -1.0,
        2.2204460492503136e-16,
        -2.2204460492503126e-16,
        0.0,
        0.0,
        0.0,
        0.0,
        1.0
      ],
      "name": "Sketchfab_model"
    },
    {
      "children": [
        2,
        3,
        4,
        5,
        6,
        7,
        8,
        9,
        10,
        11,
        12,
        13
      ],
      "name": "Bed_Friya.obj.cleaner.materialmerger.gles"
    },
    {
      "mesh": 0,
      "name": "Object_2"
    },
    {
      "mesh": 1,
      "name": "Object_3"
    },
    {
      "mesh": 2,
      "name": "Object_4"
    },
    {
      "mesh": 3,
      "name": "Object_5"
    },
    {
      "mesh": 4,
      "name": "Object_6"
    },
    {
      "mesh": 5,
      "name": "Object_7"
    },
    {
      "mesh": 6,
      "name": "Object_8"
    },
    {
      "mesh": 7,
      "name": "Object_9"
    },
    {
      "mesh": 8,
      "name": "Object_10"
    },
    {
      "mesh": 9,
      "name": "Object_11"
    },
    {
      "mesh": 10,
      "name": "Object_12"
    },
    {
      "mesh": 11,
      "name": "Object_13"
    }
  ],
  "samplers": [
    {
      "magFilter": 9729,
      "minFilter": 9987,
      "wrapS": 10497,
      "wrapT": 10497
    }
  ],
  "scene": 0,
  "scenes": [
    {
      "name": "Sketchfab_Scene",
      "nodes": [
        0
      ]
    }
  ],
  "textures": [
    {
      "sampler": 0,
      "source": 0
    },
    {
      "sampler": 0,
      "source": 1
    },
    {
      "sampler": 0,
      "source": 2
    }
  ]
}
