{
  "accessors": [
    {
      "bufferView": 1,
      "componentType": 5126,
      "count": 6502,
      "max": [
        90.0457534790039,
        50.406551361083984,
        20.629138946533203
      ],
      "min": [
        59.502315521240234,
        9.5422945022583,
        9.914287567138672
      ],
      "type": "VEC3"
    },
    {
      "bufferView": 1,
      "byteOffset": 78024,
      "componentType": 5126,
      "count": 6502,
      "max": [
        0.9999958872795105,
        0.9993857145309448,
        0.9999912977218628
      ],
      "min": [
        -0.9999958872795105,
        -0.9993857145309448,
        -0.9999912977218628
      ],
      "type": "VEC3"
    },
    {
      "bufferView": 0,
      "componentType": 5125,
      "count": 36450,
      "type": "SCALAR"
    },
    {
      "bufferView": 1,
      "byteOffset": 156048,
      "componentType": 5126,
      "count": 3216,
      "max": [
        90.0457534790039,
        50.406551361083984,
        20.629138946533203
      ],
      "min": [
        59.502315521240234,
        9.5422945022583,
        9.914287567138672
      ],
      "type": "VEC3"
    },
    {
      "bufferView": 0,
      "byteOffset": 145800,
      "componentType": 5125,
      "count": 18218,
      "type": "SCALAR"
    }
  ],
  "asset": {
    "extras": {
      "author": "Sbailey0917 (https://sketchfab.com/Sbailey0917)",
      "license": "CC-BY-4.0 (http://creativecommons.org/licenses/by/4.0/)",
      "source": "https://sketchfab.com/3d-models/blanket-fe60fc4c73bc4645b3120ab20863f817",
      "title": "Blanket"
    },
    "generator": "Sketchfab-13.55.0",
    "version": "2.0"
  },
  "bufferViews": [
    {
      "buffer": 0,
      "byteLength": 218672,
      "name": "floatBufferViews",
      "target": 34963
    },
    {
      "buffer": 0,
      "byteLength": 194640,
      "byteOffset": 218672,
      "byteStride": 12,
      "name": "floatBufferViews",
      "target": 34962
    }
  ],
  "buffers": [
    {
      "byteLength": 413312,
      "uri": "scene.bin"
    }
  ],
  "materials": [
    {
      "name": "material_0",
      "pbrMetallicRoughness": {
        "baseColorFactor": [
          0.74902,
          0.74902,
          0.74902,
          1.0
        ],
        "metallicFactor": 0.0,
        "roughnessFactor": 0.6
      }
    },
    {
      "name": "edge_color191191191255",
      "pbrMetallicRoughness": {
        "metallicFactor": 0.0,
        "roughnessFactor": 0.6
      }
    }
  ],
  "meshes": [
    {
      "name": "Material2",
      "primitives": [
        {
          "attributes": {
            "NORMAL": 1,
            "POSITION": 0
          },
          "indices": 2,
          "material": 0,
          "mode": 4
        }
      ]
    },
    {
      "name": "Material3",
      "primitives": [
        {
          "attributes": {
            "POSITION": 3
          },
          "indices": 4,
          "material": 1,
          "mode": 1
        }
      ]
    }
  ],
  "nodes": [
    {
      "children": [
        1
      ],
      "matrix": [
        1.0,
        0.0,
        0.0,
        0.0,
        0.0,
        2.220446049250313e-16,
        -1.0,
        0.0,
        0.0,
        1.0,
        2.220446049250313e-16,
        0.0,
        0.0,
        0.0,
        0.0,
        1.0
      ],
      "name": "Sketchfab_model"
    },
    {
      "children": [
        2,
        3,
        4
      ],
      "name": "Collada visual scene group"
    },
    {
      "mesh": 0,
      "name": "Material2"
    },
    {
      "mesh": 1,
      "name": "Material3"
    },
    {
      "children": [
        5
      ],
      "name": "SketchUp"
    },
    {
      "children": [
        6
      ],
      "matrix": [
        0.7770836,
        0.6293974,
        2.775558e-17,
        0.0,
        -0.2619202,
        0.323379,
        0.9092985,
        0.0,
        0.5723101,
        -0.706601,
        0.4161443,
        0.0,
        117.3685,
        -14.63199,
        42.12649,
        1.0
      ],
      "name": "skp_camera_Last_Saved_SketchUp_View"
    },
    {
      "name": "ID1"
    }
  ],
  "scene": 0,
  "scenes": [
    {
      "name": "Sketchfab_Scene",
      "nodes": [
        0
      ]
    }
  ]
}
