{
  "accessors": [
    {
      "bufferView": 2,
      "componentType": 5126,
      "count": 317,
      "max": [
        0.3930804431438446,
        2.5451440811157227,
        3.417522430419922
      ],
      "min": [
        -0.3930804431438446,
        1.8009995222091675,
        2.116143226623535
      ],
      "type": "VEC3"
    },
    {
      "bufferView": 2,
      "byteOffset": 3804,
      "componentType": 5126,
      "count": 317,
      "max": [
        1.0,
        0.9992737174034119,
        0.9994348883628845
      ],
      "min": [
        -1.0,
        -0.08019357919692993,
        -0.9033330082893372
      ],
      "type": "VEC3"
    },
    {
      "bufferView": 1,
      "componentType": 5126,
      "count": 317,
      "max": [
        1.0,
        1.0
      ],
      "min": [
        -2.2351741790771484e-08,
        0.0
      ],
      "type": "VEC2"
    },
    {
      "bufferView": 0,
      "componentType": 5125,
      "count": 1296,
      "type": "SCALAR"
    },
    {
      "bufferView": 2,
      "byteOffset": 7608,
      "componentType": 5126,
      "count": 297,
      "max": [
        0.5,
        2.251145839691162,
        3.5207104682922363
      ],
      "min": [
        -0.5,
        2.1511459350585938,
        2.0207107067108154
      ],
      "type": "VEC3"
    },
    {
      "bufferView": 2,
      "byteOffset": 11172,
      "componentType": 5126,
      "count": 297,
      "max": [
        0.9999998211860657,
        0.999998927116394,
        0.9999995827674866
      ],
      "min": [
        -0.9999998211860657,
        0.0,
        -0.9999995827674866
      ],
      "type": "VEC3"
    },
    {
      "bufferView": 1,
      "byteOffset": 2536,
      "componentType": 5126,
      "count": 297,
      "max": [
        1.0,
        1.0
      ],
      "min": [
        0.0,
        -1.4435499906539917e-08
      ],
      "type": "VEC2"
    },
    {
      "bufferView": 0,
      "byteOffset": 5184,
      "componentType": 5125,
      "count": 1032,
      "type": "SCALAR"
    },
    {
      "bufferView": 2,
      "byteOffset": 14736,
      "componentType": 5126,
      "count": 1551,
      "max": [
        4.881061553955078,
        2.151146173477173,
        4.881061553955078
      ],
      "min": [
        -4.881062030792236,
        0.1511460542678833,
        -4.881061553955078
      ],
      "type": "VEC3"
    },
    {
      "bufferView": 2,
      "byteOffset": 33348,
      "componentType": 5126,
      "count": 1551,
      "max": [
        1.0,
        1.0,
        1.0
      ],
      "min": [
        -1.0,
        -7.558893457826343e-07,
        -1.0
      ],
      "type": "VEC3"
    },
    {
      "bufferView": 1,
      "byteOffset": 4912,
      "componentType": 5126,
      "count": 1551,
      "max": [
        1.0,
        1.0
      ],
      "min": [
        0.0,
        0.0
      ],
      "type": "VEC2"
    },
    {
      "bufferView": 0,
      "byteOffset": 9312,
      "componentType": 5125,
      "count": 6912,
      "type": "SCALAR"
    },
    {
      "bufferView": 2,
      "byteOffset": 51960,
      "componentType": 5126,
      "count": 3577,
      "max": [
        4.994372367858887,
        0.7002451419830322,
        4.994372844696045
      ],
      "min": [
        -4.994373798370361,
        -5.960464477539063e-07,
        -4.994372844696045
      ],
      "type": "VEC3"
    },
    {
      "bufferView": 2,
      "byteOffset": 94884,
      "componentType": 5126,
      "count": 3577,
      "max": [
        1.0,
        1.0,
        1.0
      ],
      "min": [
        -1.0,
        -1.0,
        -1.0
      ],
      "type": "VEC3"
    },
    {
      "bufferView": 1,
      "byteOffset": 17320,
      "componentType": 5126,
      "count": 3577,
      "max": [
        1.0,
        1.0
      ],
      "min": [
        0.0,
        0.0
      ],
      "type": "VEC2"
    },
    {
      "bufferView": 0,
      "byteOffset": 36960,
      "componentType": 5125,
      "count": 17664,
      "type": "SCALAR"
    },
    {
      "bufferView": 2,
      "byteOffset": 137808,
      "componentType": 5126,
      "count": 3916,
      "max": [
        3.513782501220703,
        20.772138595581055,
        8.751707077026367
      ],
      "min": [
        -3.513782501220703,
        10.215320587158203,
        -0.5153806209564209
      ],
      "type": "VEC3"
    },
    {
      "bufferView": 2,
      "byteOffset": 184800,
      "componentType": 5126,
      "count": 3916,
      "max": [
        1.0,
        0.8217025399208069,
        0.9992544054985046
      ],
      "min": [
        -1.0,
        -0.9996230006217957,
        -0.9965741038322449
      ],
      "type": "VEC3"
    },
    {
      "bufferView": 0,
      "byteOffset": 107616,
      "componentType": 5125,
      "count": 22770,
      "type": "SCALAR"
    },
    {
      "bufferView": 2,
      "byteOffset": 231792,
      "componentType": 5126,
      "count": 5910,
      "max": [
        3.613316535949707,
        20.8717098236084,
        8.879374504089355
      ],
      "min": [
        -3.613316535949707,
        10.088860511779785,
        -0.6147732138633728
      ],
      "type": "VEC3"
    },
    {
      "bufferView": 2,
      "byteOffset": 302712,
      "componentType": 5126,
      "count": 5910,
      "max": [
        1.0,
        0.9990141987800598,
        0.9979133009910583
      ],
      "min": [
        -1.0,
        -0.9924485683441162,
        -0.9992544054985046
      ],
      "type": "VEC3"
    },
    {
      "bufferView": 0,
      "byteOffset": 198696,
      "componentType": 5125,
      "count": 34734,
      "type": "SCALAR"
    },
    {
      "bufferView": 2,
      "byteOffset": 373632,
      "componentType": 5126,
      "count": 1268,
      "max": [
        1.4551644325256348,
        18.685190200805664,
        5.425902366638184
      ],
      "min": [
        -1.4551644325256348,
        13.468757629394531,
        1.4408189058303833
      ],
      "type": "VEC3"
    },
    {
      "bufferView": 2,
      "byteOffset": 388848,
      "componentType": 5126,
      "count": 1268,
      "max": [
        1.0,
        0.9895123839378357,
        0.9989529848098755
      ],
      "min": [
        -1.0,
        -0.9992347955703735,
        -0.9998303055763245
      ],
      "type": "VEC3"
    },
    {
      "bufferView": 1,
      "byteOffset": 45936,
      "componentType": 5126,
      "count": 1268,
      "max": [
        1.0,
        1.0
      ],
      "min": [
        0.0,
        0.0
      ],
      "type": "VEC2"
    },
    {
      "bufferView": 0,
      "byteOffset": 337632,
      "componentType": 5125,
      "count": 5760,
      "type": "SCALAR"
    },
    {
      "bufferView": 2,
      "byteOffset": 404064,
      "componentType": 5126,
      "count": 1190,
      "max": [
        1.0801466703414917,
        19.05569839477539,
        3.9723966121673584
      ],
      "min": [
        -1.0801466703414917,
        16.064929962158203,
        1.0844016075134277
      ],
      "type": "VEC3"
    },
    {
      "bufferView": 2,
      "byteOffset": 418344,
      "componentType": 5126,
      "count": 1190,
      "max": [
        0.9999626874923706,
        0.8788872361183167,
        0.9954155087471008
      ],
      "min": [
        -0.9999626278877258,
        -0.9497861862182617,
        -0.9996532201766968
      ],
      "type": "VEC3"
    },
    {
      "bufferView": 1,
      "byteOffset": 56080,
      "componentType": 5126,
      "count": 1190,
      "max": [
        1.0,
        1.0
      ],
      "min": [
        0.0,
        0.0
      ],
      "type": "VEC2"
    },
    {
      "bufferView": 0,
      "byteOffset": 360672,
      "componentType": 5125,
      "count": 4224,
      "type": "SCALAR"
    },
    {
      "bufferView": 2,
      "byteOffset": 432624,
      "componentType": 5126,
      "count": 1372,
      "max": [
        0.836914598941803,
        18.126605987548828,
        0.7254431843757629
      ],
      "min": [
        -0.8369138240814209,
        15.779278755187988,
        -1.5774061679840088
      ],
      "type": "VEC3"
    },
    {
      "bufferView": 2,
      "byteOffset": 449088,
      "componentType": 5126,
      "count": 1372,
      "max": [
        1.0,
        0.9992795586585999,
        0.910935640335083
      ],
      "min": [
        -1.0,
        -0.9998962879180908,
        -0.9926180839538574
      ],
      "type": "VEC3"
    },
    {
      "bufferView": 1,
      "byteOffset": 65600,
      "componentType": 5126,
      "count": 1372,
      "max": [
        1.0,
        1.0
      ],
      "min": [
        0.0,
        0.0
      ],
      "type": "VEC2"
    },
    {
      "bufferView": 0,
      "byteOffset": 377568,
      "componentType": 5125,
      "count": 4608,
      "type": "SCALAR"
    },
    {
      "bufferView": 2,
      "byteOffset": 465552,
      "componentType": 5126,
      "count": 60074,
      "max": [
        0.7026354074478149,
        17.296340942382813,
        -0.4367063045501709
      ],
      "min": [
        -0.7142637968063354,
        2.7542929649353027,
        -5.22395133972168
      ],
      "type": "VEC3"
    },
    {
      "bufferView": 2,
      "byteOffset": 1186440,
      "componentType": 5126,
      "count": 60074,
      "max": [
        1.0,
        0.9999762177467346,
        1.0
      ],
      "min": [
        -1.0,
        -0.9999987483024597,
        -1.0
      ],
      "type": "VEC3"
    },
    {
      "bufferView": 1,
      "byteOffset": 76576,
      "componentType": 5126,
      "count": 60074,
      "max": [
        1.0,
        1.0
      ],
      "min": [
        0.0,
        1.0
      ],
      "type": "VEC2"
    },
    {
      "bufferView": 0,
      "byteOffset": 396000,
      "componentType": 5125,
      "count": 155136,
      "type": "SCALAR"
    },
    {
      "bufferView": 2,
      "byteOffset": 1907328,
      "componentType": 5126,
      "count": 823,
      "max": [
        0.7357274293899536,
        3.151146411895752,
        -2.2750096321105957
      ],
      "min": [
        -0.7357273697853088,
        2.151146411895752,
        -3.746464729309082
      ],
      "type": "VEC3"
    },
    {
      "bufferView": 2,
      "byteOffset": 1917204,
      "componentType": 5126,
      "count": 823,
      "max": [
        1.0,
        0.9999803900718689,
        1.0
      ],
      "min": [
        -1.0,
        -0.9969871640205383,
        -1.0
      ],
      "type": "VEC3"
    },
    {
      "bufferView": 1,
      "byteOffset": 557168,
      "componentType": 5126,
      "count": 823,
      "max": [
        1.0,
        1.0
      ],
      "min": [
        0.0,
        0.0
      ],
      "type": "VEC2"
    },
    {
      "bufferView": 0,
      "byteOffset": 1016544,
      "componentType": 5125,
      "count": 2688,
      "type": "SCALAR"
    }
  ],
  "asset": {
    "extras": {
      "author": "bordiug (https://sketchfab.com/bordiug)",
      "license": "CC-BY-NC-4.0 (http://creativecommons.org/licenses/by-nc/4.0/)",
      "source": "https://sketchfab.com/3d-models/desk-lamp-01-f82e2a03f8d94641b07842c284f00635",
      "title": "Desk Lamp 01"
    },
    "generator": "Sketchfab-12.67.0",
    "version": "2.0"
  },
  "bufferViews": [
    {
      "buffer": 0,
      "byteLength": 1027296,
      "name": "floatBufferViews",
      "target": 34963
    },
    {
      "buffer": 0,
      "byteLength": 563752,
      "byteOffset": 1027296,
      "byteStride": 8,
      "name": "floatBufferViews",
      "target": 34962
    },
    {
      "buffer": 0,
      "byteLength": 1927080,
      "byteOffset": 1591048,
      "byteStride": 12,
      "name": "floatBufferViews",
      "target": 34962
    }
  ],
  "buffers": [
    {
      "byteLength": 3518128,
      "uri": "scene.bin"
    }
  ],
  "materials": [
    {
      "doubleSided": true,
      "name": "plastic1",
      "pbrMetallicRoughness": {
        "baseColorFactor": [
          0.0,
          0.0,
          0.0,
          1.0
        ],
        "metallicFactor": 0.0,
        "roughnessFactor": 0.6
      }
    },
    {
      "doubleSided": true,
      "name": "metall_outside",
      "pbrMetallicRoughness": {
        "baseColorFactor": [
          0.8,
          0.0,
          0.0,
          1.0
        ],
        "metallicFactor": 0.0,
        "roughnessFactor": 0.6
      }
    },
    {
      "doubleSided": true,
      "name": "metall_inside",
      "pbrMetallicRoughness": {
        "baseColorFactor": [
          0.8,
          0.8,
          0.8,
          1.0
        ],
        "metallicFactor": 0.0,
        "roughnessFactor": 0.6
      }
    },
    {
      "doubleSided": true,
      "name": "lamp",
      "pbrMetallicRoughness": {
        "baseColorFactor": [
          0.8,
          0.6302752,
          0.1696,
          1.0
        ],
        "metallicFactor": 0.0,
        "roughnessFactor": 0.6
      }
    }
  ],
  "meshes": [
    {
      "name": "switcher_button_plastic1_0",
      "primitives": [
        {
          "attributes": {
            "NORMAL": 1,
            "POSITION": 0,
            "TEXCOORD_0": 2
          },
          "indices": 3,
          "material": 0,
          "mode": 4
        }
      ]
    },
    {
      "name": "switche_base_plastic1_0",
      "primitives": [
        {
          "attributes": {
            "NORMAL": 5,
            "POSITION": 4,
            "TEXCOORD_0": 6
          },
          "indices": 7,
          "material": 0,
          "mode": 4
        }
      ]
    },
    {
      "name": "stand_metall_metall_outside_0",
      "primitives": [
        {
          "attributes": {
            "NORMAL": 9,
            "POSITION": 8,
            "TEXCOORD_0": 10
          },
          "indices": 11,
          "material": 1,
          "mode": 4
        }
      ]
    },
    {
      "name": "stand_plastic_plastic1_0",
      "primitives": [
        {
          "attributes": {
            "NORMAL": 13,
            "POSITION": 12,
            "TEXCOORD_0": 14
          },
          "indices": 15,
          "material": 0,
          "mode": 4
        }
      ]
    },
    {
      "name": "diffuser_metall_inside_0",
      "primitives": [
        {
          "attributes": {
            "NORMAL": 17,
            "POSITION": 16
          },
          "indices": 18,
          "material": 2,
          "mode": 4
        }
      ]
    },
    {
      "name": "diffuser_metall_outside_0",
      "primitives": [
        {
          "attributes": {
            "NORMAL": 20,
            "POSITION": 19
          },
          "indices": 21,
          "material": 1,
          "mode": 4
        }
      ]
    },
    {
      "name": "bulb_lamp_0",
      "primitives": [
        {
          "attributes": {
            "NORMAL": 23,
            "POSITION": 22,
            "TEXCOORD_0": 24
          },
          "indices": 25,
          "material": 3,
          "mode": 4
        }
      ]
    },
    {
      "name": "bulb_holder_plastic1_0",
      "primitives": [
        {
          "attributes": {
            "NORMAL": 27,
            "POSITION": 26,
            "TEXCOORD_0": 28
          },
          "indices": 29,
          "material": 0,
          "mode": 4
        }
      ]
    },
    {
      "name": "hose_upper_part_plastic1_0",
      "primitives": [
        {
          "attributes": {
            "NORMAL": 31,
            "POSITION": 30,
            "TEXCOORD_0": 32
          },
          "indices": 33,
          "material": 0,
          "mode": 4
        }
      ]
    },
    {
      "name": "hose_plastic1_0",
      "primitives": [
        {
          "attributes": {
            "NORMAL": 35,
            "POSITION": 34,
            "TEXCOORD_0": 36
          },
          "indices": 37,
          "material": 0,
          "mode": 4
        }
      ]
    },
    {
      "name": "hose_lower_part_plastic1_0",
      "primitives": [
        {
          "attributes": {
            "NORMAL": 39,
            "POSITION": 38,
            "TEXCOORD_0": 40
          },
          "indices": 41,
          "material": 0,
          "mode": 4
        }
      ]
    }
  ],
  "nodes": [
    {
      "children": [
        1
      ],
      "matrix": [
        1.0,
        0.0,
        0.0,
        0.0,
        0.0,
        2.220446049250313e-16,
        -1.0,
        0.0,
        0.0,
        1.0,
        2.220446049250313e-16,
        0.0,
        0.0,
        0.0,
        0.0,
        1.0
      ],
      "name": "Sketchfab_model"
    },
    {
      "children": [
        2
      ],
      "matrix": [
        1.0,
        0.0,
        0.0,
        0.0,
        0.0,
        0.0,
        1.0,
        0.0,
        0.0,
        -1.0,
        0.0,
        0.0,
        0.0,
        0.0,
        0.0,
        1.0
      ],
      "name": "d801bc1c44064983a7b72d6bc654506d.fbx"
    },
    {
      "children": [
        3
      ],
      "name": "RootNode"
    },
    {
      "children": [
        4,
        9,
        14,
        22
      ],
      "name": "lamp_grp"
    },
    {
      "children": [
        5,
        7
      ],
      "name": "switcher_grp"
    },
    {
      "children": [
        6
      ],
      "name": "switcher_button"
    },
    {
      "mesh": 0,
      "name": "switcher_button_plastic1_0"
    },
    {
      "children": [
        8
      ],
      "name": "switche_base"
    },
    {
      "mesh": 1,
      "name": "switche_base_plastic1_0"
    },
    {
      "children": [
        10,
        12
      ],
      "name": "stand_grp"
    },
    {
      "children": [
        11
      ],
      "name": "stand_metall"
    },
    {
      "mesh": 2,
      "name": "stand_metall_metall_outside_0"
    },
    {
      "children": [
        13
      ],
      "name": "stand_plastic"
    },
    {
      "mesh": 3,
      "name": "stand_plastic_plastic1_0"
    },
    {
      "children": [
        15,
        18,
        20
      ],
      "name": "diffuser_grp"
    },
    {
      "children": [
        16,
        17
      ],
      "name": "diffuser"
    },
    {
      "mesh": 4,
      "name": "diffuser_metall_inside_0"
    },
    {
      "mesh": 5,
      "name": "diffuser_metall_outside_0"
    },
    {
      "children": [
        19
      ],
      "name": "bulb"
    },
    {
      "mesh": 6,
      "name": "bulb_lamp_0"
    },
    {
      "children": [
        21
      ],
      "name": "bulb_holder"
    },
    {
      "mesh": 7,
      "name": "bulb_holder_plastic1_0"
    },
    {
      "children": [
        23,
        25,
        27
      ],
      "name": "hose_grp"
    },
    {
      "children": [
        24
      ],
      "name": "hose_upper_part"
    },
    {
      "mesh": 8,
      "name": "hose_upper_part_plastic1_0"
    },
    {
      "children": [
        26
      ],
      "name": "hose"
    },
    {
      "mesh": 9,
      "name": "hose_plastic1_0"
    },
    {
      "children": [
        28
      ],
      "name": "hose_lower_part"
    },
    {
      "mesh": 10,
      "name": "hose_lower_part_plastic1_0"
    }
  ],
  "scene": 0,
  "scenes": [
    {
      "name": "Sketchfab_Scene",
      "nodes": [
        0
      ]
    }
  ]
}
