{
  "accessors": [
    {
      "bufferView": 2,
      "componentType": 5126,
      "count": 1703,
      "max": [
        96.82835388183594,
        135.0,
        107.5
      ],
      "min": [
        -96.45960998535156,
        0.0,
        -107.5
      ],
      "type": "VEC3"
    },
    {
      "bufferView": 2,
      "byteOffset": 20436,
      "componentType": 5126,
      "count": 1703,
      "max": [
        1.0,
        1.0,
        1.0
      ],
      "min": [
        -1.0,
        -1.0,
        -1.0
      ],
      "type": "VEC3"
    },
    {
      "bufferView": 3,
      "componentType": 5126,
      "count": 1703,
      "max": [
        1.0,
        1.0,
        1.0,
        1.0
      ],
      "min": [
        -1.0,
        -1.0,
        -1.0,
        -1.0
      ],
      "type": "VEC4"
    },
    {
      "bufferView": 1,
      "componentType": 5126,
      "count": 1703,
      "max": [
        0.9378209114074707,
        0.9959855675697327
      ],
      "min": [
        0.0005000000237487257,
        0.0005000000237487257
      ],
      "type": "VEC2"
    },
    {
      "bufferView": 1,
      "byteOffset": 13624,
      "componentType": 5126,
      "count": 1703,
      "max": [
        0.9378209114074707,
        0.9959855675697327
      ],
      "min": [
        0.0005000000237487257,
        0.0005000000237487257
      ],
      "type": "VEC2"
    },
    {
      "bufferView": 0,
      "componentType": 5125,
      "count": 7224,
      "type": "SCALAR"
    },
    {
      "bufferView": 2,
      "byteOffset": 40872,
      "componentType": 5126,
      "count": 1509,
      "max": [
        97.44235229492188,
        135.6120147705078,
        108.12000274658203
      ],
      "min": [
        -97.0736083984375,
        -0.4021570384502411,
        -108.10365295410156
      ],
      "type": "VEC3"
    },
    {
      "bufferView": 2,
      "byteOffset": 58980,
      "componentType": 5126,
      "count": 1509,
      "max": [
        1.0,
        1.0,
        1.0
      ],
      "min": [
        -1.0,
        -1.0,
        -1.0
      ],
      "type": "VEC3"
    },
    {
      "bufferView": 1,
      "byteOffset": 27248,
      "componentType": 5126,
      "count": 1509,
      "max": [
        0.9378209114074707,
        0.9959855675697327
      ],
      "min": [
        0.0005000000237487257,
        0.0005000000237487257
      ],
      "type": "VEC2"
    },
    {
      "bufferView": 1,
      "byteOffset": 39320,
      "componentType": 5126,
      "count": 1509,
      "max": [
        0.9378209114074707,
        0.9959855675697327
      ],
      "min": [
        0.0005000000237487257,
        0.0005000000237487257
      ],
      "type": "VEC2"
    },
    {
      "bufferView": 0,
      "byteOffset": 28896,
      "componentType": 5125,
      "count": 6180,
      "type": "SCALAR"
    },
    {
      "bufferView": 2,
      "byteOffset": 77088,
      "componentType": 5126,
      "count": 1787,
      "max": [
        99.5,
        92.2246322631836,
        99.4156494140625
      ],
      "min": [
        -99.5,
        32.427162170410156,
        -103.27845764160156
      ],
      "type": "VEC3"
    },
    {
      "bufferView": 2,
      "byteOffset": 98532,
      "componentType": 5126,
      "count": 1787,
      "max": [
        0.9962353110313416,
        0.9999750852584839,
        0.9995161294937134
      ],
      "min": [
        -0.9995279312133789,
        -0.9951170682907104,
        -0.9999738335609436
      ],
      "type": "VEC3"
    },
    {
      "bufferView": 3,
      "byteOffset": 27248,
      "componentType": 5126,
      "count": 1787,
      "max": [
        1.0,
        0.9972509741783142,
        0.8874416351318359,
        1.0
      ],
      "min": [
        -0.9999999403953552,
        -0.9988835453987122,
        -0.8881437182426453,
        -1.0
      ],
      "type": "VEC4"
    },
    {
      "bufferView": 1,
      "byteOffset": 51392,
      "componentType": 5126,
      "count": 1787,
      "max": [
        0.9587180018424988,
        0.9891383647918701
      ],
      "min": [
        0.007796229794621468,
        0.008838548325002193
      ],
      "type": "VEC2"
    },
    {
      "bufferView": 1,
      "byteOffset": 65688,
      "componentType": 5126,
      "count": 1787,
      "max": [
        0.9587180018424988,
        0.9891383647918701
      ],
      "min": [
        0.007796229794621468,
        0.008838548325002193
      ],
      "type": "VEC2"
    },
    {
      "bufferView": 0,
      "byteOffset": 53616,
      "componentType": 5125,
      "count": 9312,
      "type": "SCALAR"
    },
    {
      "bufferView": 2,
      "byteOffset": 119976,
      "componentType": 5126,
      "count": 1707,
      "max": [
        100.14380645751953,
        92.87006378173828,
        100.0674057006836
      ],
      "min": [
        -100.16822052001953,
        32.427162170410156,
        -103.61471557617188
      ],
      "type": "VEC3"
    },
    {
      "bufferView": 2,
      "byteOffset": 140460,
      "componentType": 5126,
      "count": 1707,
      "max": [
        0.9984447360038757,
        0.9950866103172302,
        0.9999483227729797
      ],
      "min": [
        -0.9964034557342529,
        -0.9999760985374451,
        -0.9995279908180237
      ],
      "type": "VEC3"
    },
    {
      "bufferView": 1,
      "byteOffset": 79984,
      "componentType": 5126,
      "count": 1707,
      "max": [
        0.9587180018424988,
        0.9891383647918701
      ],
      "min": [
        0.007796229794621468,
        0.008838548325002193
      ],
      "type": "VEC2"
    },
    {
      "bufferView": 1,
      "byteOffset": 93640,
      "componentType": 5126,
      "count": 1707,
      "max": [
        0.9587180018424988,
        0.9891383647918701
      ],
      "min": [
        0.007796229794621468,
        0.008838548325002193
      ],
      "type": "VEC2"
    },
    {
      "bufferView": 0,
      "byteOffset": 90864,
      "componentType": 5125,
      "count": 8868,
      "type": "SCALAR"
    }
  ],
  "asset": {
    "extras": {
      "author": "faroface (https://sketchfab.com/faroface)",
      "license": "CC-BY-4.0 (http://creativecommons.org/licenses/by/4.0/)",
      "source": "https://sketchfab.com/3d-models/toon-bed-8a3e81a0f86547429256c17e177b3fdd",
      "title": "Toon_bed"
    },
    "generator": "Sketchfab-13.48.0",
    "version": "2.0"
  },
  "bufferViews": [
    {
      "buffer": 0,
      "byteLength": 126336,
      "name": "floatBufferViews",
      "target": 34963
    },
    {
      "buffer": 0,
      "byteLength": 107296,
      "byteOffset": 126336,
      "byteStride": 8,
      "name": "floatBufferViews",
      "target": 34962
    },
    {
      "buffer": 0,
      "byteLength": 160944,
      "byteOffset": 233632,
      "byteStride": 12,
      "name": "floatBufferViews",
      "target": 34962
    },
    {
      "buffer": 0,
      "byteLength": 55840,
      "byteOffset": 394576,
      "byteStride": 16,
      "name": "floatBufferViews",
      "target": 34962
    }
  ],
  "buffers": [
    {
      "byteLength": 450416,
      "uri": "scene.bin"
    }
  ],
  "images": [
    {
      "uri": "textures/12415_main_material_baseColor.png"
    },
    {
      "uri": "textures/12415_main_material_normal.png"
    },
    {
      "uri": "textures/12415_bed_material_baseColor.png"
    },
    {
      "uri": "textures/12415_bed_material_metallicRoughness.png"
    },
    {
      "uri": "textures/12415_bed_material_normal.png"
    }
  ],
  "materials": [
    {
      "doubleSided": true,
      "name": "12415_main_material",
      "normalTexture": {
        "index": 1
      },
      "pbrMetallicRoughness": {
        "baseColorTexture": {
          "index": 0
        },
        "metallicFactor": 0.059428752544769654
      }
    },
    {
      "name": "Material.001",
      "pbrMetallicRoughness": {
        "baseColorFactor": [
          0.0,
          0.0,
          0.0,
          1.0
        ],
        "metallicFactor": 0.598425
      }
    },
    {
      "doubleSided": true,
      "name": "12415_bed_material",
      "normalTexture": {
        "index": 4,
        "scale": 0.35809632943643255
      },
      "occlusionTexture": {
        "index": 3
      },
      "pbrMetallicRoughness": {
        "baseColorTexture": {
          "index": 2
        },
        "metallicFactor": 0.5531445429167022,
        "metallicRoughnessTexture": {
          "index": 3
        }
      }
    }
  ],
  "meshes": [
    {
      "name": "Object_0",
      "primitives": [
        {
          "attributes": {
            "NORMAL": 1,
            "POSITION": 0,
            "TANGENT": 2,
            "TEXCOORD_0": 3,
            "TEXCOORD_1": 4
          },
          "indices": 5,
          "material": 0,
          "mode": 4
        }
      ]
    },
    {
      "name": "Object_1",
      "primitives": [
        {
          "attributes": {
            "NORMAL": 7,
            "POSITION": 6,
            "TEXCOORD_0": 8,
            "TEXCOORD_1": 9
          },
          "indices": 10,
          "material": 1,
          "mode": 4
        }
      ]
    },
    {
      "name": "Object_2",
      "primitives": [
        {
          "attributes": {
            "NORMAL": 12,
            "POSITION": 11,
            "TANGENT": 13,
            "TEXCOORD_0": 14,
            "TEXCOORD_1": 15
          },
          "indices": 16,
          "material": 2,
          "mode": 4
        }
      ]
    },
    {
      "name": "Object_3",
      "primitives": [
        {
          "attributes": {
            "NORMAL": 18,
            "POSITION": 17,
            "TEXCOORD_0": 19,
            "TEXCOORD_1": 20
          },
          "indices": 21,
          "material": 1,
          "mode": 4
        }
      ]
    }
  ],
  "nodes": [
    {
      "children": [
        1
      ],
      "matrix": [
        1.0,
        0.0,
        0.0,
        0.0,
        0.0,
        2.220446049250313e-16,
        -1.0,
        0.0,
        0.0,
        1.0,
        2.220446049250313e-16,
        0.0,
        0.0,
        0.0,
        0.0,
        1.0
      ],
      "name": "Sketchfab_model"
    },
    {
      "children": [
        2
      ],
      "name": "root"
    },
    {
      "children": [
        3,
        6
      ],
      "matrix": [
        1.0,
        0.0,
        0.0,
        0.0,
        0.0,
        2.220446049250313e-16,
        1.0,
        0.0,
        0.0,
        -1.0,
        2.220446049250313e-16,
        0.0,
        0.0,
        0.0,
        0.0,
        1.0
      ],
      "name": "GLTF_SceneRootNode"
    },
    {
      "children": [
        4,
        5
      ],
      "matrix": [
        -0.002090745369621122,
        0.0,
        0.00977899684676601,
        0.0,
        -0.0,
        0.009999999776482582,
        0.0,
        0.0,
        -0.00977899684676601,
        -0.0,
        -0.002090745369621122,
        0.0,
        -0.0002443406265228987,
        0.0,
        3.107191801071167,
        1.0
      ],
      "name": "12415_main_0"
    },
    {
      "mesh": 0,
      "name": "Object_4"
    },
    {
      "mesh": 1,
      "name": "Object_5"
    },
    {
      "children": [
        7,
        8
      ],
      "matrix": [
        -0.002090745369621122,
        0.0,
        0.00977899684676601,
        0.0,
        -0.0,
        0.009999999776482582,
        0.0,
        0.0,
        -0.00977899684676601,
        -0.0,
        -0.002090745369621122,
        0.0,
        -0.0002443406265228987,
        0.0,
        3.107191801071167,
        1.0
      ],
      "name": "12415_bed_1"
    },
    {
      "mesh": 2,
      "name": "Object_7"
    },
    {
      "mesh": 3,
      "name": "Object_8"
    }
  ],
  "samplers": [
    {
      "magFilter": 9729,
      "minFilter": 9987,
      "wrapS": 10497,
      "wrapT": 10497
    }
  ],
  "scene": 0,
  "scenes": [
    {
      "name": "Sketchfab_Scene",
      "nodes": [
        0
      ]
    }
  ],
  "textures": [
    {
      "sampler": 0,
      "source": 0
    },
    {
      "sampler": 0,
      "source": 1
    },
    {
      "sampler": 0,
      "source": 2
    },
    {
      "sampler": 0,
      "source": 3
    },
    {
      "sampler": 0,
      "source": 4
    }
  ]
}
