{
  "accessors": [
    {
      "bufferView": 2,
      "componentType": 5126,
      "count": 19544,
      "max": [
        0.8440799713134766,
        1.187893033027649,
        0.9390029907226563
      ],
      "min": [
        -0.9566919803619385,
        -1.0651439428329468,
        0.0005169999785721302
      ],
      "type": "VEC3"
    },
    {
      "bufferView": 2,
      "byteOffset": 234528,
      "componentType": 5126,
      "count": 19544,
      "max": [
        1.0,
        1.0,
        1.0
      ],
      "min": [
        -1.0,
        -1.0,
        -1.0
      ],
      "type": "VEC3"
    },
    {
      "bufferView": 1,
      "componentType": 5126,
      "count": 19544,
      "max": [
        0.997310996055603,
        0.9993379712104797
      ],
      "min": [
        0.0002530000056140125,
        0.0002530000056140125
      ],
      "type": "VEC2"
    },
    {
      "bufferView": 0,
      "componentType": 5125,
      "count": 110832,
      "type": "SCALAR"
    },
    {
      "bufferView": 2,
      "byteOffset": 469056,
      "componentType": 5126,
      "count": 6554,
      "max": [
        0.8134549856185913,
        0.5263019800186157,
        0.5114930272102356
      ],
      "min": [
        -0.93265700340271,
        -0.9969509840011597,
        0.2195190042257309
      ],
      "type": "VEC3"
    },
    {
      "bufferView": 2,
      "byteOffset": 547704,
      "componentType": 5126,
      "count": 6554,
      "max": [
        1.0,
        0.9999997615814209,
        1.0
      ],
      "min": [
        -1.0,
        -1.0,
        -0.9999997615814209
      ],
      "type": "VEC3"
    },
    {
      "bufferView": 1,
      "byteOffset": 156352,
      "componentType": 5126,
      "count": 6554,
      "max": [
        0.753400981426239,
        0.805974006652832
      ],
      "min": [
        0.2852259874343872,
        0.000291000003926456
      ],
      "type": "VEC2"
    },
    {
      "bufferView": 0,
      "byteOffset": 443328,
      "componentType": 5125,
      "count": 38016,
      "type": "SCALAR"
    },
    {
      "bufferView": 2,
      "byteOffset": 626352,
      "componentType": 5126,
      "count": 2116,
      "max": [
        0.770675003528595,
        1.031322956085205,
        0.4540719985961914
      ],
      "min": [
        -0.8918439745903015,
        -0.9773780107498169,
        0.2669070065021515
      ],
      "type": "VEC3"
    },
    {
      "bufferView": 2,
      "byteOffset": 651744,
      "componentType": 5126,
      "count": 2116,
      "max": [
        1.0,
        0.9999992847442627,
        0.9999997615814209
      ],
      "min": [
        -1.0,
        -0.9999997615814209,
        -0.9999997615814209
      ],
      "type": "VEC3"
    },
    {
      "bufferView": 1,
      "byteOffset": 208784,
      "componentType": 5126,
      "count": 2116,
      "max": [
        0.6927170157432556,
        0.7820330262184143
      ],
      "min": [
        0.2597759962081909,
        0.000291000003926456
      ],
      "type": "VEC2"
    },
    {
      "bufferView": 0,
      "byteOffset": 595392,
      "componentType": 5125,
      "count": 11520,
      "type": "SCALAR"
    },
    {
      "bufferView": 2,
      "byteOffset": 677136,
      "componentType": 5126,
      "count": 8336,
      "max": [
        0.7226369976997375,
        1.0025529861450195,
        0.6447280049324036
      ],
      "min": [
        -0.830784022808075,
        0.5098900198936462,
        0.4540799856185913
      ],
      "type": "VEC3"
    },
    {
      "bufferView": 2,
      "byteOffset": 777168,
      "componentType": 5126,
      "count": 8336,
      "max": [
        0.9999876022338867,
        0.9999842643737793,
        0.9999823570251465
      ],
      "min": [
        -0.9999464750289917,
        -0.9999828338623047,
        -1.0
      ],
      "type": "VEC3"
    },
    {
      "bufferView": 1,
      "byteOffset": 225712,
      "componentType": 5126,
      "count": 8336,
      "max": [
        0.6235160231590271,
        0.4982990026473999
      ],
      "min": [
        0.42249101400375366,
        0.3170109987258911
      ],
      "type": "VEC2"
    },
    {
      "bufferView": 0,
      "byteOffset": 641472,
      "componentType": 5125,
      "count": 46488,
      "type": "SCALAR"
    }
  ],
  "asset": {
    "extras": {
      "author": "BertO (https://sketchfab.com/bertosalotti)",
      "license": "CC-BY-4.0 (http://creativecommons.org/licenses/by/4.0/)",
      "source": "https://sketchfab.com/3d-models/soho-bed-3d-model-97e361e8beda4112ac5b1b5bcd388cdf",
      "title": "Soho bed - 3D Model"
    },
    "generator": "Sketchfab-12.66.0",
    "version": "2.0"
  },
  "bufferViews": [
    {
      "buffer": 0,
      "byteLength": 827424,
      "name": "floatBufferViews",
      "target": 34963
    },
    {
      "buffer": 0,
      "byteLength": 292400,
      "byteOffset": 827424,
      "byteStride": 8,
      "name": "floatBufferViews",
      "target": 34962
    },
    {
      "buffer": 0,
      "byteLength": 877200,
      "byteOffset": 1119824,
      "byteStride": 12,
      "name": "floatBufferViews",
      "target": 34962
    }
  ],
  "buffers": [
    {
      "byteLength": 1997024,
      "uri": "scene.bin"
    }
  ],
  "extensionsRequired": [
    "KHR_materials_pbrSpecularGlossiness"
  ],
  "extensionsUsed": [
    "KHR_materials_pbrSpecularGlossiness"
  ],
  "images": [
    {
      "uri": "textures/Soho_180_001_diffuse.jpeg"
    }
  ],
  "materials": [
    {
      "doubleSided": true,
      "extensions": {
        "KHR_materials_pbrSpecularGlossiness": {
          "diffuseFactor": [
            1.0,
            1.0,
            1.0,
            1.0
          ],
          "diffuseTexture": {
            "index": 0
          },
          "glossinessFactor": 0.34584603658536583,
          "specularFactor": [
            0.0078125,
            0.0078125,
            0.0078125
          ]
        }
      },
      "name": "Soho_180_001"
    },
    {
      "doubleSided": true,
      "extensions": {
        "KHR_materials_pbrSpecularGlossiness": {
          "diffuseFactor": [
            0.1866849037247159,
            0.19068989788781077,
            0.2099684709666353,
            1.0
          ],
          "glossinessFactor": 0.19364916731037085,
          "specularFactor": [
            0.0,
            0.0,
            0.0
          ]
        }
      },
      "name": "Soho_180_002"
    },
    {
      "doubleSided": true,
      "extensions": {
        "KHR_materials_pbrSpecularGlossiness": {
          "diffuseFactor": [
            0.1591465020581453,
            0.15762224803094343,
            0.17534715041373466,
            1.0
          ],
          "glossinessFactor": 0.19364916731037085,
          "specularFactor": [
            0.0,
            0.0,
            0.0
          ]
        }
      },
      "name": "Soho_180_003"
    },
    {
      "doubleSided": true,
      "extensions": {
        "KHR_materials_pbrSpecularGlossiness": {
          "diffuseFactor": [
            0.14367432822375564,
            0.147258783651534,
            0.16460807970228097,
            1.0
          ],
          "glossinessFactor": 0.19364916731037085,
          "specularFactor": [
            0.0,
            0.0,
            0.0
          ]
        }
      },
      "name": "Soho_180_004"
    }
  ],
  "meshes": [
    {
      "name": "Object_0",
      "primitives": [
        {
          "attributes": {
            "NORMAL": 1,
            "POSITION": 0,
            "TEXCOORD_0": 2
          },
          "indices": 3,
          "material": 0,
          "mode": 4
        }
      ]
    },
    {
      "name": "Object_1",
      "primitives": [
        {
          "attributes": {
            "NORMAL": 5,
            "POSITION": 4,
            "TEXCOORD_0": 6
          },
          "indices": 7,
          "material": 1,
          "mode": 4
        }
      ]
    },
    {
      "name": "Object_2",
      "primitives": [
        {
          "attributes": {
            "NORMAL": 9,
            "POSITION": 8,
            "TEXCOORD_0": 10
          },
          "indices": 11,
          "material": 2,
          "mode": 4
        }
      ]
    },
    {
      "name": "Object_3",
      "primitives": [
        {
          "attributes": {
            "NORMAL": 13,
            "POSITION": 12,
            "TEXCOORD_0": 14
          },
          "indices": 15,
          "material": 3,
          "mode": 4
        }
      ]
    }
  ],
  "nodes": [
    {
      "children": [
        1
      ],
      "matrix": [
        1.0,
        0.0,
        0.0,
        0.0,
        0.0,
        2.220446049250313e-16,
        -1.0,
        0.0,
        0.0,
        1.0,
        2.220446049250313e-16,
        0.0,
        0.0,
        0.0,
        0.0,
        1.0
      ],
      "name": "Sketchfab_model"
    },
    {
      "children": [
        2,
        3,
        4,
        5
      ],
      "name": "Soho_180.obj.cleaner.materialmerger.gles"
    },
    {
      "mesh": 0,
      "name": "Object_2"
    },
    {
      "mesh": 1,
      "name": "Object_3"
    },
    {
      "mesh": 2,
      "name": "Object_4"
    },
    {
      "mesh": 3,
      "name": "Object_5"
    }
  ],
  "samplers": [
    {
      "magFilter": 9729,
      "minFilter": 9987,
      "wrapS": 10497,
      "wrapT": 10497
    }
  ],
  "scene": 0,
  "scenes": [
    {
      "name": "Sketchfab_Scene",
      "nodes": [
        0
      ]
    }
  ],
  "textures": [
    {
      "sampler": 0,
      "source": 0
    }
  ]
}
