{
  "accessors": [
    {
      "bufferView": 2,
      "componentType": 5126,
      "count": 17530,
      "max": [
        135.79872131347656,
        121.73426055908203,
        123.70955657958984
      ],
      "min": [
        25.940570831298828,
        110.73318481445313,
        34.44499206542969
      ],
      "type": "VEC3"
    },
    {
      "bufferView": 2,
      "byteOffset": 210360,
      "componentType": 5126,
      "count": 17530,
      "max": [
        0.9998394250869751,
        1.0,
        0.9999991655349731
      ],
      "min": [
        -0.9999924898147583,
        -1.0,
        -0.9999805688858032
      ],
      "type": "VEC3"
    },
    {
      "bufferView": 1,
      "componentType": 5126,
      "count": 17530,
      "max": [
        0.9999001622200012,
        0.9999002814292908
      ],
      "min": [
        9.998002497013658e-05,
        9.998002497013658e-05
      ],
      "type": "VEC2"
    },
    {
      "bufferView": 1,
      "byteOffset": 140240,
      "componentType": 5126,
      "count": 17530,
      "max": [
        0.9999001622200012,
        0.9999002814292908
      ],
      "min": [
        9.998002497013658e-05,
        9.998002497013658e-05
      ],
      "type": "VEC2"
    },
    {
      "bufferView": 0,
      "componentType": 5125,
      "count": 102912,
      "type": "SCALAR"
    }
  ],
  "asset": {
    "extras": {
      "author": "Nicothin (https://sketchfab.com/juhyt80)",
      "license": "CC-BY-4.0 (http://creativecommons.org/licenses/by/4.0/)",
      "source": "https://sketchfab.com/3d-models/folded-towel-c5f9e72edf7d4b5eaa2ec9b95c3b099d",
      "title": "Folded Towel"
    },
    "generator": "Sketchfab-12.65.0",
    "version": "2.0"
  },
  "bufferViews": [
    {
      "buffer": 0,
      "byteLength": 411648,
      "name": "floatBufferViews",
      "target": 34963
    },
    {
      "buffer": 0,
      "byteLength": 280480,
      "byteOffset": 411648,
      "byteStride": 8,
      "name": "floatBufferViews",
      "target": 34962
    },
    {
      "buffer": 0,
      "byteLength": 420720,
      "byteOffset": 692128,
      "byteStride": 12,
      "name": "floatBufferViews",
      "target": 34962
    }
  ],
  "buffers": [
    {
      "byteLength": 1112848,
      "uri": "scene.bin"
    }
  ],
  "extensionsUsed": [
    "KHR_materials_unlit"
  ],
  "images": [
    {
      "uri": "textures/Material.001_baseColor.png"
    }
  ],
  "materials": [
    {
      "doubleSided": true,
      "extensions": {
        "KHR_materials_unlit": {}
      },
      "name": "Material.001",
      "pbrMetallicRoughness": {
        "baseColorTexture": {
          "index": 0
        },
        "metallicFactor": 0.0
      }
    }
  ],
  "meshes": [
    {
      "name": "Tower_Material.001_0",
      "primitives": [
        {
          "attributes": {
            "NORMAL": 1,
            "POSITION": 0,
            "TEXCOORD_0": 2,
            "TEXCOORD_1": 3
          },
          "indices": 4,
          "material": 0,
          "mode": 4
        }
      ]
    }
  ],
  "nodes": [
    {
      "children": [
        1
      ],
      "matrix": [
        1.0,
        0.0,
        0.0,
        0.0,
        0.0,
        2.220446049250313e-16,
        -1.0,
        0.0,
        0.0,
        1.0,
        2.220446049250313e-16,
        0.0,
        0.0,
        0.0,
        0.0,
        1.0
      ],
      "name": "Sketchfab_model"
    },
    {
      "children": [
        2
      ],
      "matrix": [
        1.0,
        0.0,
        0.0,
        0.0,
        0.0,
        0.0,
        1.0,
        0.0,
        0.0,
        -1.0,
        0.0,
        0.0,
        0.0,
        0.0,
        0.0,
        1.0
      ],
      "name": "6ddb4306dadc4bdf8e930c1960fe6198.fbx"
    },
    {
      "children": [
        3
      ],
      "name": "RootNode"
    },
    {
      "children": [
        4
      ],
      "matrix": [
        -4.921351909637451,
        -0.0,
        -0.0,
        -0.0,
        -0.0,
        -4.921351909637451,
        -0.0,
        -0.0,
        -0.0,
        -0.0,
        -9.842703819274902,
        -0.0,
        0.0,
        597.147216796875,
        0.0,
        1.0
      ],
      "name": "Tower"
    },
    {
      "mesh": 0,
      "name": "Tower_Material.001_0"
    }
  ],
  "samplers": [
    {
      "magFilter": 9729,
      "minFilter": 9987,
      "wrapS": 10497,
      "wrapT": 10497
    }
  ],
  "scene": 0,
  "scenes": [
    {
      "name": "Sketchfab_Scene",
      "nodes": [
        0
      ]
    }
  ],
  "textures": [
    {
      "sampler": 0,
      "source": 0
    }
  ]
}
